<svg width="1440" height="810" viewBox="0 0 1440 810" fill="none" xmlns="http://www.w3.org/2000/svg">
<g clip-path="url(#clip0_553_677)">
<path d="M722.4 380.1L626.1 315.6L567.6 393.9L722.4 380.1Z" fill="#19435D" stroke="#19435D" stroke-linejoin="bevel"/>
<path d="M567.6 393.9L544.65 438.9L722.4 380.1L567.6 393.9Z" fill="#297EA6" stroke="#297EA6" stroke-linejoin="bevel"/>
<path d="M741.6 174.15L573.6 241.95L626.1 315.6L741.6 174.15Z" fill="#205A7A" stroke="#205A7A" stroke-linejoin="bevel"/>
<path d="M626.1 315.6L573.6 241.95L567.6 393.9L626.1 315.6Z" fill="#246688" stroke="#246688" stroke-linejoin="bevel"/>
<path d="M567.6 393.9L472.2 461.4L544.65 438.9L567.6 393.9Z" fill="#297EA6" stroke="#297EA6" stroke-linejoin="bevel"/>
<path d="M450.15 302.1L472.2 461.4L567.6 393.9L450.15 302.1Z" fill="#205A7A" stroke="#205A7A" stroke-linejoin="bevel"/>
<path d="M584.1 638.55L779.4 536.4L544.65 438.9L584.1 638.55Z" fill="#1D4E6B" stroke="#1D4E6B" stroke-linejoin="bevel"/>
<path d="M544.65 438.9L779.4 536.4L722.4 380.1L544.65 438.9Z" fill="#15384F" stroke="#15384F" stroke-linejoin="bevel"/>
<path d="M779.4 536.4L844.35 371.1L722.4 380.1L779.4 536.4Z" fill="#112E42" stroke="#112E42" stroke-linejoin="bevel"/>
<path d="M722.4 380.1L741.6 174.15L626.1 315.6L722.4 380.1Z" fill="#081A28" stroke="#081A28" stroke-linejoin="bevel"/>
<path d="M573.6 241.95L450.15 302.1L567.6 393.9L573.6 241.95Z" fill="#297EA6" stroke="#297EA6" stroke-linejoin="bevel"/>
<path d="M741.6 174.15L538.65 186.45L573.6 241.95L741.6 174.15Z" fill="#19435D" stroke="#19435D" stroke-linejoin="bevel"/>
<path d="M573.6 241.95L538.65 186.45L450.15 302.1L573.6 241.95Z" fill="#277297" stroke="#277297" stroke-linejoin="bevel"/>
<path d="M825.9 189.15L741.6 174.15L722.4 380.1L825.9 189.15Z" fill="#277297" stroke="#277297" stroke-linejoin="bevel"/>
<path d="M779.4 536.4L841.35 549.9L844.35 371.1L779.4 536.4Z" fill="#277297" stroke="#277297" stroke-linejoin="bevel"/>
<path d="M472.2 461.4L584.1 638.55L544.65 438.9L472.2 461.4Z" fill="#277297" stroke="#277297" stroke-linejoin="bevel"/>
<path d="M779.4 536.4L798.9 617.55L841.35 549.9L779.4 536.4Z" fill="#1D4E6B" stroke="#1D4E6B" stroke-linejoin="bevel"/>
<path d="M825.9 189.15L773.4 159.45L741.6 174.15L825.9 189.15Z" fill="#15384F" stroke="#15384F" stroke-linejoin="bevel"/>
<path d="M741.6 174.15L666.6 0L538.65 186.45L741.6 174.15Z" fill="#112E42" stroke="#112E42" stroke-linejoin="bevel"/>
<path d="M844.35 371.1L825.9 189.15L722.4 380.1L844.35 371.1Z" fill="#15384F" stroke="#15384F" stroke-linejoin="bevel"/>
<path d="M584.1 638.55L738.9 647.85L779.4 536.4L584.1 638.55Z" fill="#297EA6" stroke="#297EA6" stroke-linejoin="bevel"/>
<path d="M738.9 647.85L798.9 617.55L779.4 536.4L738.9 647.85Z" fill="#081A28" stroke="#081A28" stroke-linejoin="bevel"/>
<path d="M382.2 294.45L379.2 311.1L450.15 302.1L382.2 294.45Z" fill="#1D4E6B" stroke="#1D4E6B" stroke-linejoin="bevel"/>
<path d="M450.15 302.1L379.2 311.1L472.2 461.4L450.15 302.1Z" fill="#00101C" stroke="#00101C" stroke-linejoin="bevel"/>
<path d="M422.7 154.65L382.2 294.45L450.15 302.1L422.7 154.65Z" fill="#112E42" stroke="#112E42" stroke-linejoin="bevel"/>
<path d="M419.7 676.35L507.15 649.05L472.2 461.4L419.7 676.35Z" fill="#277297" stroke="#277297" stroke-linejoin="bevel"/>
<path d="M472.2 461.4L507.15 649.05L584.1 638.55L472.2 461.4Z" fill="#1D4E6B" stroke="#1D4E6B" stroke-linejoin="bevel"/>
<path d="M584.1 638.55L675.6 698.85L738.9 647.85L584.1 638.55Z" fill="#15384F" stroke="#15384F" stroke-linejoin="bevel"/>
<path d="M955.35 740.85L886.35 583.05L798.9 617.55L955.35 740.85Z" fill="#246688" stroke="#246688" stroke-linejoin="bevel"/>
<path d="M798.9 617.55L886.35 583.05L841.35 549.9L798.9 617.55Z" fill="#277297" stroke="#277297" stroke-linejoin="bevel"/>
<path d="M841.35 549.9L982.8 398.4L844.35 371.1L841.35 549.9Z" fill="#246688" stroke="#246688" stroke-linejoin="bevel"/>
<path d="M844.35 371.1L959.85 207.45L825.9 189.15L844.35 371.1Z" fill="#19435D" stroke="#19435D" stroke-linejoin="bevel"/>
<path d="M568.65 700.35L675.6 698.85L584.1 638.55L568.65 700.35Z" fill="#00101C" stroke="#00101C" stroke-linejoin="bevel"/>
<path d="M870.9 810L955.35 740.85L798.9 617.55L870.9 810Z" fill="#081A28" stroke="#081A28" stroke-linejoin="bevel"/>
<path d="M507.15 649.05L568.65 700.35L584.1 638.55L507.15 649.05Z" fill="#0C2435" stroke="#0C2435" stroke-linejoin="bevel"/>
<path d="M441.15 46.65L422.7 154.65L538.65 186.45L441.15 46.65Z" fill="#00101C" stroke="#00101C" stroke-linejoin="bevel"/>
<path d="M538.65 186.45L422.7 154.65L450.15 302.1L538.65 186.45Z" fill="#00101C" stroke="#00101C" stroke-linejoin="bevel"/>
<path d="M886.35 583.05L982.8 398.4L841.35 549.9L886.35 583.05Z" fill="#081A28" stroke="#081A28" stroke-linejoin="bevel"/>
<path d="M313.2 602.55L419.7 676.35L472.2 461.4L313.2 602.55Z" fill="#19435D" stroke="#19435D" stroke-linejoin="bevel"/>
<path d="M507.15 649.05L478.65 810L568.65 700.35L507.15 649.05Z" fill="#0C2435" stroke="#0C2435" stroke-linejoin="bevel"/>
<path d="M1008.3 267.6L959.85 207.45L844.35 371.1L1008.3 267.6Z" fill="#0C2435" stroke="#0C2435" stroke-linejoin="bevel"/>
<path d="M825.9 189.15L869.4 0L773.4 159.45L825.9 189.15Z" fill="#0C2435" stroke="#0C2435" stroke-linejoin="bevel"/>
<path d="M198.75 326.1L284.25 467.4L379.2 311.1L198.75 326.1Z" fill="#205A7A" stroke="#205A7A" stroke-linejoin="bevel"/>
<path d="M379.2 311.1L284.25 467.4L472.2 461.4L379.2 311.1Z" fill="#1D4E6B" stroke="#1D4E6B" stroke-linejoin="bevel"/>
<path d="M198.75 326.1L379.2 311.1L215.25 240.45L198.75 326.1Z" fill="#205A7A" stroke="#205A7A" stroke-linejoin="bevel"/>
<path d="M982.8 398.4L1008.3 267.6L844.35 371.1L982.8 398.4Z" fill="#15384F" stroke="#15384F" stroke-linejoin="bevel"/>
<path d="M869.4 0H666.6L773.4 159.45L869.4 0Z" fill="#246688" stroke="#246688" stroke-linejoin="bevel"/>
<path d="M773.4 159.45L666.6 0L741.6 174.15L773.4 159.45Z" fill="#00101C" stroke="#00101C" stroke-linejoin="bevel"/>
<path d="M284.25 467.4L313.2 602.55L472.2 461.4L284.25 467.4Z" fill="#0C2435" stroke="#0C2435" stroke-linejoin="bevel"/>
<path d="M496.65 0L441.15 46.65L538.65 186.45L496.65 0Z" fill="#277297" stroke="#277297" stroke-linejoin="bevel"/>
<path d="M422.7 154.65H317.25L382.2 294.45L422.7 154.65Z" fill="#205A7A" stroke="#205A7A" stroke-linejoin="bevel"/>
<path d="M441.15 46.65L317.25 154.65H422.7L441.15 46.65Z" fill="#00101C" stroke="#00101C" stroke-linejoin="bevel"/>
<path d="M666.6 0H496.65L538.65 186.45L666.6 0Z" fill="#0C2435" stroke="#0C2435" stroke-linejoin="bevel"/>
<path d="M478.65 810H651.6L568.65 700.35L478.65 810Z" fill="#19435D" stroke="#19435D" stroke-linejoin="bevel"/>
<path d="M568.65 700.35L651.6 810L675.6 698.85L568.65 700.35Z" fill="#1D4E6B" stroke="#1D4E6B" stroke-linejoin="bevel"/>
<path d="M675.6 698.85L870.9 810L738.9 647.85L675.6 698.85Z" fill="#19435D" stroke="#19435D" stroke-linejoin="bevel"/>
<path d="M1000.35 151.65L994.8 150.15L959.85 207.45L1000.35 151.65Z" fill="#297EA6" stroke="#297EA6" stroke-linejoin="bevel"/>
<path d="M959.85 207.45L994.8 150.15L825.9 189.15L959.85 207.45Z" fill="#00101C" stroke="#00101C" stroke-linejoin="bevel"/>
<path d="M1008.3 267.6L1000.35 151.65L959.85 207.45L1008.3 267.6Z" fill="#1D4E6B" stroke="#1D4E6B" stroke-linejoin="bevel"/>
<path d="M994.8 150.15L869.4 0L825.9 189.15L994.8 150.15Z" fill="#1D4E6B" stroke="#1D4E6B" stroke-linejoin="bevel"/>
<path d="M1125.75 414.6L1069.8 249.45L1008.3 267.6L1125.75 414.6Z" fill="#0C2435" stroke="#0C2435" stroke-linejoin="bevel"/>
<path d="M1008.3 267.6L1069.8 249.45L1000.35 151.65L1008.3 267.6Z" fill="#15384F" stroke="#15384F" stroke-linejoin="bevel"/>
<path d="M1125.75 414.6L1008.3 267.6L982.8 398.4L1125.75 414.6Z" fill="#277297" stroke="#277297" stroke-linejoin="bevel"/>
<path d="M953.85 0H869.4L994.8 150.15L953.85 0Z" fill="#297EA6" stroke="#297EA6" stroke-linejoin="bevel"/>
<path d="M448.2 810H478.65L419.7 676.35L448.2 810Z" fill="#205A7A" stroke="#205A7A" stroke-linejoin="bevel"/>
<path d="M419.7 676.35L478.65 810L507.15 649.05L419.7 676.35Z" fill="#0C2435" stroke="#0C2435" stroke-linejoin="bevel"/>
<path d="M215.25 240.45L379.2 311.1L382.2 294.45L215.25 240.45Z" fill="#1D4E6B" stroke="#1D4E6B" stroke-linejoin="bevel"/>
<path d="M284.25 467.4L186.75 656.55L313.2 602.55L284.25 467.4Z" fill="#19435D" stroke="#19435D" stroke-linejoin="bevel"/>
<path d="M317.25 154.65L215.25 240.45L382.2 294.45L317.25 154.65Z" fill="#1D4E6B" stroke="#1D4E6B" stroke-linejoin="bevel"/>
<path d="M172.95 0L215.25 240.45L317.25 154.65L172.95 0Z" fill="#277297" stroke="#277297" stroke-linejoin="bevel"/>
<path d="M302.25 749.85L448.2 810L419.7 676.35L302.25 749.85Z" fill="#15384F" stroke="#15384F" stroke-linejoin="bevel"/>
<path d="M870.9 810L798.9 617.55L738.9 647.85L870.9 810Z" fill="#00101C" stroke="#00101C" stroke-linejoin="bevel"/>
<path d="M1090.8 637.05L1125.75 414.6L982.8 398.4L1090.8 637.05Z" fill="#1D4E6B" stroke="#1D4E6B" stroke-linejoin="bevel"/>
<path d="M651.6 810H870.9L675.6 698.85L651.6 810Z" fill="#205A7A" stroke="#205A7A" stroke-linejoin="bevel"/>
<path d="M496.65 0H368.7L441.15 46.65L496.65 0Z" fill="#246688" stroke="#246688" stroke-linejoin="bevel"/>
<path d="M441.15 46.65L368.7 0L317.25 154.65L441.15 46.65Z" fill="#277297" stroke="#277297" stroke-linejoin="bevel"/>
<path d="M1090.8 637.05L982.8 398.4L886.35 583.05L1090.8 637.05Z" fill="#1D4E6B" stroke="#1D4E6B" stroke-linejoin="bevel"/>
<path d="M313.2 602.55L302.25 749.85L419.7 676.35L313.2 602.55Z" fill="#00101C" stroke="#00101C" stroke-linejoin="bevel"/>
<path d="M186.75 656.55L302.25 749.85L313.2 602.55L186.75 656.55Z" fill="#1D4E6B" stroke="#1D4E6B" stroke-linejoin="bevel"/>
<path d="M1106.25 0H953.85L1000.35 151.65L1106.25 0Z" fill="#246688" stroke="#246688" stroke-linejoin="bevel"/>
<path d="M1000.35 151.65L953.85 0L994.8 150.15L1000.35 151.65Z" fill="#205A7A" stroke="#205A7A" stroke-linejoin="bevel"/>
<path d="M955.35 740.85L1090.8 637.05L886.35 583.05L955.35 740.85Z" fill="#112E42" stroke="#112E42" stroke-linejoin="bevel"/>
<path d="M1122.75 703.35L1090.8 637.05L1098.3 754.35L1122.75 703.35Z" fill="#246688" stroke="#246688" stroke-linejoin="bevel"/>
<path d="M368.7 0H308.25L317.25 154.65L368.7 0Z" fill="#19435D" stroke="#19435D" stroke-linejoin="bevel"/>
<path d="M870.9 810H952.35L955.35 740.85L870.9 810Z" fill="#112E42" stroke="#112E42" stroke-linejoin="bevel"/>
<path d="M215.25 240.45L121.95 315.45L198.75 326.1L215.25 240.45Z" fill="#15384F" stroke="#15384F" stroke-linejoin="bevel"/>
<path d="M198.75 326.1L70.9502 483.9L284.25 467.4L198.75 326.1Z" fill="#112E42" stroke="#112E42" stroke-linejoin="bevel"/>
<path d="M0 193.95L121.95 315.45L215.25 240.45L0 193.95Z" fill="#00101C" stroke="#00101C" stroke-linejoin="bevel"/>
<path d="M106.95 611.85L186.75 656.55L284.25 467.4L106.95 611.85Z" fill="#15384F" stroke="#15384F" stroke-linejoin="bevel"/>
<path d="M1233.75 502.05L1200.75 420.9L1125.75 414.6L1233.75 502.05Z" fill="#297EA6" stroke="#297EA6" stroke-linejoin="bevel"/>
<path d="M1125.75 414.6L1238.25 283.95L1069.8 249.45L1125.75 414.6Z" fill="#19435D" stroke="#19435D" stroke-linejoin="bevel"/>
<path d="M1069.8 249.45L1188.75 133.65L1000.35 151.65L1069.8 249.45Z" fill="#1D4E6B" stroke="#1D4E6B" stroke-linejoin="bevel"/>
<path d="M952.35 810H1027.8L955.35 740.85L952.35 810Z" fill="#297EA6" stroke="#297EA6" stroke-linejoin="bevel"/>
<path d="M1090.8 637.05L1233.75 502.05L1125.75 414.6L1090.8 637.05Z" fill="#246688" stroke="#246688" stroke-linejoin="bevel"/>
<path d="M1098.3 754.35L1090.8 637.05L955.35 740.85L1098.3 754.35Z" fill="#112E42" stroke="#112E42" stroke-linejoin="bevel"/>
<path d="M1027.8 810L1098.3 754.35L955.35 740.85L1027.8 810Z" fill="#00101C" stroke="#00101C" stroke-linejoin="bevel"/>
<path d="M121.95 315.45L70.9502 483.9L198.75 326.1L121.95 315.45Z" fill="#1D4E6B" stroke="#1D4E6B" stroke-linejoin="bevel"/>
<path d="M70.9502 483.9L106.95 611.85L284.25 467.4L70.9502 483.9Z" fill="#112E42" stroke="#112E42" stroke-linejoin="bevel"/>
<path d="M186.75 656.55L189.75 810L302.25 749.85L186.75 656.55Z" fill="#246688" stroke="#246688" stroke-linejoin="bevel"/>
<path d="M0 332.1L57.45 353.1L121.95 315.45L0 332.1Z" fill="#246688" stroke="#246688" stroke-linejoin="bevel"/>
<path d="M121.95 315.45L57.4502 353.1L70.9502 483.9L121.95 315.45Z" fill="#15384F" stroke="#15384F" stroke-linejoin="bevel"/>
<path d="M1288.05 420.6L1233.75 502.05L1310.55 474.9L1288.05 420.6Z" fill="#1D4E6B" stroke="#1D4E6B" stroke-linejoin="bevel"/>
<path d="M1285.05 539.55L1233.75 502.05L1090.8 637.05L1285.05 539.55Z" fill="#246688" stroke="#246688" stroke-linejoin="bevel"/>
<path d="M1238.25 283.95L1125.75 414.6L1200.75 420.9L1238.25 283.95Z" fill="#0C2435" stroke="#0C2435" stroke-linejoin="bevel"/>
<path d="M1231.05 169.95L1188.75 133.65L1069.8 249.45L1231.05 169.95Z" fill="#081A28" stroke="#081A28" stroke-linejoin="bevel"/>
<path d="M1288.05 420.6L1238.25 283.95L1200.75 420.9L1288.05 420.6Z" fill="#0C2435" stroke="#0C2435" stroke-linejoin="bevel"/>
<path d="M1188.75 133.65L1106.25 0L1000.35 151.65L1188.75 133.65Z" fill="#0C2435" stroke="#0C2435" stroke-linejoin="bevel"/>
<path d="M308.25 0H172.95L317.25 154.65L308.25 0Z" fill="#15384F" stroke="#15384F" stroke-linejoin="bevel"/>
<path d="M0 500.55L42.45 524.55L70.95 483.9L0 500.55Z" fill="#1D4E6B" stroke="#1D4E6B" stroke-linejoin="bevel"/>
<path d="M70.9502 483.9L42.4502 524.55L106.95 611.85L70.9502 483.9Z" fill="#246688" stroke="#246688" stroke-linejoin="bevel"/>
<path d="M66.4502 810H189.75L186.75 656.55L66.4502 810Z" fill="#112E42" stroke="#112E42" stroke-linejoin="bevel"/>
<path d="M302.25 749.85L189.75 810H448.2L302.25 749.85Z" fill="#205A7A" stroke="#205A7A" stroke-linejoin="bevel"/>
<path d="M66.4502 810L186.75 656.55L106.95 611.85L66.4502 810Z" fill="#081A28" stroke="#081A28" stroke-linejoin="bevel"/>
<path d="M1188.75 133.65L1134.3 0H1106.25L1188.75 133.65Z" fill="#19435D" stroke="#19435D" stroke-linejoin="bevel"/>
<path d="M1238.25 283.95L1231.05 169.95L1069.8 249.45L1238.25 283.95Z" fill="#00101C" stroke="#00101C" stroke-linejoin="bevel"/>
<path d="M1188.75 133.65L1370.55 0H1134.3L1188.75 133.65Z" fill="#081A28" stroke="#081A28" stroke-linejoin="bevel"/>
<path d="M1285.05 539.55L1090.8 637.05L1286.55 686.85L1285.05 539.55Z" fill="#112E42" stroke="#112E42" stroke-linejoin="bevel"/>
<path d="M1233.75 502.05L1288.05 420.6L1200.75 420.9L1233.75 502.05Z" fill="#205A7A" stroke="#205A7A" stroke-linejoin="bevel"/>
<path d="M1238.25 283.95L1440 292.95L1231.05 169.95L1238.25 283.95Z" fill="#0C2435" stroke="#0C2435" stroke-linejoin="bevel"/>
<path d="M0 193.95V332.1L121.95 315.45L0 193.95Z" fill="#15384F" stroke="#15384F" stroke-linejoin="bevel"/>
<path d="M57.45 353.1L0 500.55L70.95 483.9L57.45 353.1Z" fill="#19435D" stroke="#19435D" stroke-linejoin="bevel"/>
<path d="M0 332.1V500.55L57.45 353.1L0 332.1Z" fill="#246688" stroke="#246688" stroke-linejoin="bevel"/>
<path d="M42.45 524.55L0 521.4L106.95 611.85L42.45 524.55Z" fill="#0C2435" stroke="#0C2435" stroke-linejoin="bevel"/>
<path d="M1286.55 686.85L1090.8 637.05L1122.75 703.35L1286.55 686.85Z" fill="#19435D" stroke="#19435D" stroke-linejoin="bevel"/>
<path d="M0 500.55V521.4L42.45 524.55L0 500.55Z" fill="#00101C" stroke="#00101C" stroke-linejoin="bevel"/>
<path d="M1285.05 539.55L1310.55 474.9L1233.75 502.05L1285.05 539.55Z" fill="#081A28" stroke="#081A28" stroke-linejoin="bevel"/>
<path d="M1288.05 420.6L1440 292.95L1238.25 283.95L1288.05 420.6Z" fill="#15384F" stroke="#15384F" stroke-linejoin="bevel"/>
<path d="M0 159.15V193.95L215.25 240.45L0 159.15Z" fill="#15384F" stroke="#15384F" stroke-linejoin="bevel"/>
<path d="M46.95 55.65L0 159.15L215.25 240.45L46.95 55.65Z" fill="#205A7A" stroke="#205A7A" stroke-linejoin="bevel"/>
<path d="M172.95 0L46.9502 55.65L215.25 240.45L172.95 0Z" fill="#00101C" stroke="#00101C" stroke-linejoin="bevel"/>
<path d="M1220.25 810L1286.55 686.85L1122.75 703.35L1220.25 810Z" fill="#277297" stroke="#277297" stroke-linejoin="bevel"/>
<path d="M1440 405.9L1288.05 420.6L1310.55 474.9L1440 405.9Z" fill="#297EA6" stroke="#297EA6" stroke-linejoin="bevel"/>
<path d="M1220.25 810L1122.75 703.35L1098.3 754.35L1220.25 810Z" fill="#246688" stroke="#246688" stroke-linejoin="bevel"/>
<path d="M1027.8 810H1220.25L1098.3 754.35L1027.8 810Z" fill="#112E42" stroke="#112E42" stroke-linejoin="bevel"/>
<path d="M0 724.35L66.45 810L106.95 611.85L0 724.35Z" fill="#277297" stroke="#277297" stroke-linejoin="bevel"/>
<path d="M0 521.4V724.35L106.95 611.85L0 521.4Z" fill="#19435D" stroke="#19435D" stroke-linejoin="bevel"/>
<path d="M1220.25 810H1267.05L1286.55 686.85L1220.25 810Z" fill="#19435D" stroke="#19435D" stroke-linejoin="bevel"/>
<path d="M172.95 0H0L46.95 55.65L172.95 0Z" fill="#00101C" stroke="#00101C" stroke-linejoin="bevel"/>
<path d="M46.95 55.65L0 0V159.15L46.95 55.65Z" fill="#246688" stroke="#246688" stroke-linejoin="bevel"/>
<path d="M0 724.35V810H66.45L0 724.35Z" fill="#277297" stroke="#277297" stroke-linejoin="bevel"/>
<path d="M1310.55 474.9L1285.05 539.55L1440 568.05L1310.55 474.9Z" fill="#00101C" stroke="#00101C" stroke-linejoin="bevel"/>
<path d="M1440 405.9L1310.55 474.9L1440 568.05V405.9Z" fill="#246688" stroke="#246688" stroke-linejoin="bevel"/>
<path d="M1440 405.9V401.1L1288.05 420.6L1440 405.9Z" fill="#1D4E6B" stroke="#1D4E6B" stroke-linejoin="bevel"/>
<path d="M1231.05 169.95L1375.05 60.15L1188.75 133.65L1231.05 169.95Z" fill="#00101C" stroke="#00101C" stroke-linejoin="bevel"/>
<path d="M1440 568.05L1285.05 539.55L1286.55 686.85L1440 568.05Z" fill="#15384F" stroke="#15384F" stroke-linejoin="bevel"/>
<path d="M1440 401.1V292.95L1288.05 420.6L1440 401.1Z" fill="#112E42" stroke="#112E42" stroke-linejoin="bevel"/>
<path d="M1440 99.15L1375.05 60.15L1231.05 169.95L1440 99.15Z" fill="#081A28" stroke="#081A28" stroke-linejoin="bevel"/>
<path d="M1440 745.35V568.05L1286.55 686.85L1440 745.35Z" fill="#297EA6" stroke="#297EA6" stroke-linejoin="bevel"/>
<path d="M1440 0H1370.55L1375.05 60.15L1440 0Z" fill="#00101C" stroke="#00101C" stroke-linejoin="bevel"/>
<path d="M1375.05 60.15L1370.55 0L1188.75 133.65L1375.05 60.15Z" fill="#19435D" stroke="#19435D" stroke-linejoin="bevel"/>
<path d="M1440 292.95V99.15L1231.05 169.95L1440 292.95Z" fill="#00101C" stroke="#00101C" stroke-linejoin="bevel"/>
<path d="M1267.05 810L1440 745.35L1286.55 686.85L1267.05 810Z" fill="#1D4E6B" stroke="#1D4E6B" stroke-linejoin="bevel"/>
<path d="M1440 99.15V0L1375.05 60.15L1440 99.15Z" fill="#277297" stroke="#277297" stroke-linejoin="bevel"/>
<path d="M1267.05 810H1440V745.35L1267.05 810Z" fill="#297EA6" stroke="#297EA6" stroke-linejoin="bevel"/>
</g>
<defs>
<clipPath id="clip0_553_677">
<rect width="1440" height="810" fill="white"/>
</clipPath>
</defs>
</svg>
